<svg width="51" height="50" viewBox="0 0 51 50" fill="none" xmlns="http://www.w3.org/2000/svg">
<path d="M0.5 25C0.5 11.1929 11.6929 0 25.5 0V0C39.3071 0 50.5 11.1929 50.5 25V25C50.5 38.8071 39.3071 50 25.5 50V50C11.6929 50 0.5 38.8071 0.5 25V25Z" fill="#272727"/>
<path d="M25.7201 33.7107H36.0974V24.0252H27.7955V15.0315H17.4182V38.5535H23.6446V35.7862C23.6446 34.64 24.5738 33.7107 25.7201 33.7107ZM23.6445 41.3208H14.6509V12.2642H30.044L38.8647 21.0849L38.8646 33.7107C40.0109 33.7107 40.9401 34.64 40.9401 35.7862V41.3208C40.9401 42.467 40.0109 43.3962 38.8646 43.3962H25.72C24.5738 43.3962 23.6445 42.467 23.6445 41.3208ZM29.871 15.8962V21.2579H35.2326L29.871 15.8962ZM25.7201 41.3208H27.1037V39.2453H27.7955C28.9418 39.2453 29.871 38.662 29.871 37.5157C29.871 36.3695 28.9418 35.7862 27.7955 35.7862H25.7201V41.3208ZM27.7955 37.8616H27.1037V37.1698H27.7955C28.1776 37.1698 28.4874 37.1336 28.4874 37.5157C28.4874 37.8978 28.1776 37.8616 27.7955 37.8616ZM35.4056 41.3208H36.7892V39.2453H38.1729V37.8616H36.7892V37.1698H38.8647V35.7862H35.4056V41.3208ZM30.5628 35.7862V41.3208H32.6383C33.7846 41.3208 34.7138 40.3915 34.7138 39.2453V37.8616C34.7138 36.7154 33.7846 35.7862 32.6383 35.7862H30.5628ZM33.3301 39.2453C33.3301 39.6274 33.0204 39.9371 32.6383 39.9371H31.9465V37.1698H32.6383C33.0204 37.1698 33.3301 37.4796 33.3301 37.8616V39.2453Z" fill="#D9D9D9"/>
<path d="M28.3431 27.1429L27.1814 25.9812L25.0569 28.1057V21.3921H23.4138V28.1057L21.2893 25.9812L20.1277 27.1429L24.2354 31.2506L28.3431 27.1429Z" fill="#D9D9D9"/>
</svg>
