<svg width="87" height="87" viewBox="0 0 87 87" fill="none" xmlns="http://www.w3.org/2000/svg">
<path d="M43.2898 82.5796C54.1393 82.5796 63.9618 78.1819 71.0718 71.0718C78.1819 63.9618 82.5796 54.1393 82.5796 43.2898C82.5796 32.4403 78.1819 22.6179 71.0718 15.5077C63.9618 8.39767 54.1393 4 43.2898 4C32.4403 4 22.6179 8.39767 15.5077 15.5077C8.39767 22.6179 4 32.4403 4 43.2898C4 54.1393 8.39767 63.9618 15.5077 71.0718C22.6179 78.1819 32.4403 82.5796 43.2898 82.5796Z" fill="#FC4545" stroke="#DC0909" stroke-width="7.85796" stroke-linejoin="round"/>
<path d="M63.9629 56.7292L52.7137 38.6364V24.1429H53.4816C54.7581 24.1429 55.7851 23.1159 55.7851 21.8393V20.3036C55.7851 19.027 54.7581 18 53.4816 18H33.5171C32.2405 18 31.2135 19.027 31.2135 20.3036V21.8393C31.2135 23.1159 32.2405 24.1429 33.5171 24.1429H34.2849V38.6364L23.0357 56.7292C20.2234 61.25 23.4676 67.1433 28.8043 67.1433H58.1943C63.5406 67.1433 66.7752 61.2404 63.9629 56.7292ZM35.2352 48.7146L39.8616 41.2663C40.2167 40.7672 40.4183 40.1529 40.4183 39.5002V24.1429H46.5612V39.5002C46.5612 40.1625 46.7723 40.7672 47.1179 41.2663L51.7443 48.7146H35.2352Z" fill="white"/>
</svg>
