<svg width="95" height="96" viewBox="0 0 95 96" fill="none" xmlns="http://www.w3.org/2000/svg">
<path d="M0.483032 0.854004H94.7786V95.1496H0.483032V0.854004Z" fill="white" fill-opacity="0.01"/>
<path d="M47.6308 87.2915C58.4803 87.2915 68.3027 82.8938 75.4128 75.7838C82.5229 68.6737 86.9206 58.8512 86.9206 48.0017C86.9206 37.1522 82.5229 27.3298 75.4128 20.2196C68.3027 13.1096 58.4803 8.71191 47.6308 8.71191C36.7813 8.71191 26.9588 13.1096 19.8487 20.2196C12.7386 27.3298 8.34094 37.1522 8.34094 48.0017C8.34094 58.8512 12.7386 68.6737 19.8487 75.7838C26.9588 82.8938 36.7813 87.2915 47.6308 87.2915Z" fill="#2F88FF" stroke="#0053C2" stroke-width="7.85796" stroke-linejoin="round"/>
<path d="M47.6308 57.0876V49.2297C54.1406 49.2297 59.4178 43.9524 59.4178 37.4427C59.4178 30.933 54.1406 25.6558 47.6308 25.6558C41.1211 25.6558 35.8439 30.933 35.8439 37.4427" stroke="white" stroke-width="7.85796" stroke-linecap="round" stroke-linejoin="round"/>
<path fill-rule="evenodd" clip-rule="evenodd" d="M47.6308 74.7678C50.3432 74.7678 52.5421 72.5689 52.5421 69.8565C52.5421 67.1442 50.3432 64.9453 47.6308 64.9453C44.9185 64.9453 42.7196 67.1442 42.7196 69.8565C42.7196 72.5689 44.9185 74.7678 47.6308 74.7678Z" fill="white"/>
</svg>
