<svg width="51" height="51" viewBox="0 0 51 51" fill="none" xmlns="http://www.w3.org/2000/svg">
<path d="M0.5625 25.6562C0.5625 11.8836 11.7274 0.71875 25.5 0.71875V0.71875C39.2726 0.71875 50.4375 11.8836 50.4375 25.6562V25.6562C50.4375 39.4288 39.2726 50.5937 25.5 50.5937V50.5937C11.7274 50.5937 0.5625 39.4288 0.5625 25.6562V25.6562Z" fill="#272727"/>
<path d="M30.7937 28.5088H39.9682C40.7967 28.5088 41.4682 29.1804 41.4682 30.0088V33.1845V36.3602C41.4682 37.1886 40.7967 37.8602 39.9682 37.8602H30.7937C29.9653 37.8602 29.2937 37.1886 29.2937 36.3602V30.0088C29.2937 29.1804 29.9653 28.5088 30.7937 28.5088Z" fill="#D9D9D9" stroke="#D9D9D9"/>
<path d="M26.9115 33.6551L11.8844 33.2131C11.3438 33.1972 10.9138 32.7544 10.9138 32.2136V13.9688C10.9138 13.4101 11.3716 12.9598 11.9302 12.9689L38.6319 13.4067C39.1777 13.4156 39.6155 13.8606 39.6155 14.4065V26.1268M19.8537 26.5973L26.9115 26.1268M26.9115 26.1268L25.9704 19.5395M26.9115 26.1268L15.1485 16.7164" stroke="#D9D9D9" stroke-width="2.5" stroke-linecap="round"/>
</svg>
